<?xml version="1.0" encoding="utf-8"?>
<!-- Generator: Adobe Illustrator 24.1.3, SVG Export Plug-In . SVG Version: 6.00 Build 0)  -->
<svg version="1.1" id="Layer_1" xmlns="http://www.w3.org/2000/svg" xmlns:xlink="http://www.w3.org/1999/xlink" x="0px" y="0px"
	 viewBox="0 0 399.1 424.5" style="enable-background:new 0 0 399.1 424.5;" xml:space="preserve">
<style type="text/css">
	.st0{fill:#FFC648;}
</style>
<path class="st0" d="M288.1,142c11.1,10.4,29,17,49.4,17c33.5,0,59.9-17.6,61.4-40.5h0.2v-12c0-29.5-17.4-56.8-49.1-76.9
	C320.1,10.5,280.5,0,238.6,0s-81.5,10.5-111.4,29.6c-31.6,20.1-49.1,47.5-49.1,76.9v12h0.2c1.5,22.9,27.9,40.5,61.4,40.5
	c20.5,0,38.3-6.6,49.4-17c8.9,8.3,22.1,14.2,37.4,16.2v30.3h-101c-5.6,0-10.9,1.3-15.7,3.6c-8.1-11.4-16.2-22.8-24.4-34.2
	c-2-2.8-4.1-6.5-7.1-8.3c-3.4-2-7.2-1.6-10.9-1.6c-10.3,0-20.6,0-30.9,0c-8.3,0-16.6,0-24.9,0c-15.4,0-15.5,24,0,24h54.5
	c8.9,12.5,17.8,25,26.7,37.4c-2.1,4.6-3.3,9.7-3.3,15.1v109c0,1.7,0.1,3.4,0.4,5.1c-2.9,7.2-4.5,15-4.5,23.2
	c0,34.6,28.1,62.7,62.7,62.7c32,0,58.4-24,62.2-55h56.4c3.8,30.9,30.3,55,62.2,55c34.6,0,62.7-28.1,62.7-62.7c0-8.2-1.6-16-4.5-23.2
	c0.2-1.7,0.4-3.3,0.4-5.1v-109c0-19.9-16.1-36-36-36h-101c0-10.1,0-20.2,0-30.3C266,156.2,279.2,150.3,288.1,142L288.1,142z
	 M148.3,400.4c-21.3,0-38.7-17.4-38.7-38.7S127,323,148.3,323s38.7,17.4,38.7,38.7S169.6,400.4,148.3,400.4z M329,400.4
	c-21.3,0-38.7-17.4-38.7-38.7S307.7,323,329,323s38.7,17.4,38.7,38.7S350.4,400.4,329,400.4z M363.6,224.5v85
	c-9.9-6.6-21.8-10.5-34.6-10.5c-29,0-53.4,19.7-60.6,46.5h-59.7c-7.2-26.7-31.6-46.5-60.6-46.5c-12.8,0-24.7,3.9-34.6,10.5v-85
	c0-6.6,5.4-12,12-12h226C358.3,212.5,363.6,217.9,363.6,224.5z M191.2,94.5C194.7,55.2,215,24,238.7,24s44,31.2,47.5,70.5H191.2z
	 M366.2,127.8c-7.4,4.5-17.8,7.1-28.7,7.1s-21.3-2.6-28.7-7.1c-4.6-2.8-7.6-6.2-8.5-9.4h10.3h64C373.8,121.7,370.8,125,366.2,127.8
	L366.2,127.8z M373.7,94.5h-63.5c-1.7-23-8.3-44.4-19-61.3c-0.7-1.1-1.5-2.3-2.2-3.4c17.9,4.4,34.3,11.1,48.2,19.9
	C357,62.3,369.6,77.9,373.7,94.5z M140.1,49.8c13.9-8.8,30.3-15.6,48.2-19.9c-0.8,1.1-1.5,2.2-2.2,3.4c-10.7,16.8-17.3,38.3-19,61.3
	h-63.5C107.7,77.9,120.3,62.3,140.1,49.8z M168.4,127.8c-7.4,4.5-17.8,7.1-28.7,7.1s-21.3-2.6-28.7-7.1c-4.6-2.8-7.6-6.2-8.5-9.4h64
	h10.4C176,121.7,173,125,168.4,127.8z M201.5,118.5h74.3c-0.9,3.2-3.9,6.5-8.5,9.4c-7.4,4.5-17.8,7.1-28.7,7.1s-21.3-2.6-28.7-7.1
	C205.4,125,202.4,121.7,201.5,118.5z"/>
<circle class="st0" cx="301.2" cy="255.5" r="22.5"/>
</svg>
