<?xml version="1.0" encoding="utf-8"?>
<!-- Generator: Adobe Illustrator 24.1.3, SVG Export Plug-In . SVG Version: 6.00 Build 0)  -->
<svg version="1.1" id="Layer_1" xmlns="http://www.w3.org/2000/svg" xmlns:xlink="http://www.w3.org/1999/xlink" x="0px" y="0px"
	 viewBox="0 0 1335 173.9" style="enable-background:new 0 0 1335 173.9;" xml:space="preserve">
<style type="text/css">
	.st0{fill:#FFC648;}
</style>
<g>
	<path class="st0" d="M646.3,118.1c5.7,0,11.5,0.3,17.2-0.1c8-0.6,14.7-0.2,18.4,9.1c1,2.4,7.3,4.1,11,3.8c3.4-0.3,7.7-3.1,9.4-6.1
		c3.2-5.3-1.5-8.8-5.6-10.3c-8.7-3.1-17.8-4.8-26.6-7.6c-11.3-3.6-22.8-6.9-33.4-11.9c-25.3-12-24.6-42.8-15.5-60.8
		c9.3-18.4,25.8-26.8,44.9-30.7c24.4-5,49.1-6.1,71.7,6.1C751.5,17,761,29,762.7,45.7c0.6,5.6-2,8.2-7,8.3
		c-15.5,0.4-31,0.4-46.5,0.6c-4.5,0-8-1.3-10.5-5.8c-2.9-5.2-15.8-5.1-18.5,0.1c-0.6,1.2,0.4,4.3,1.7,5.1c2.9,1.9,6.4,3.2,9.7,4.1
		c13.4,3.9,27.2,6.8,40.3,11.6c25.2,9.2,36.3,24.3,35.5,46c-1,26.8-13,43.5-38.3,51.4c-29.7,9.3-59.5,9.9-88.4-3.4
		c-16.2-7.4-23.5-21.4-26-38.4c-0.8-5.4,1.3-7.2,6.7-6.9c8.3,0.4,16.7,0.1,25,0.1C646.3,118.2,646.3,118.1,646.3,118.1L646.3,118.1z
		"/>
	<path class="st0" d="M525.2,165.5c-37.1,1.3-67.3-22.8-71-63c-2.4-25.7,0.5-49.8,20-69.3c6.9-6.9,15.3-9.9,24.4-12.2
		c14.6-3.6,28.9-7,44.3-5.5c28.4,2.8,44.7,19.9,53.6,45.1c9.8,27.6,7.2,54.4-9.4,79c-12.6,18.7-32.3,23.9-53.3,25.8
		C530.9,165.7,528,165.5,525.2,165.5z M544.2,92.7c-1.6-10.1-2.5-18.8-4.5-27.3c-1.3-5.4-4.5-10-11.2-10.1
		c-6.5-0.1-10.3,4.1-11.9,9.5c-5.2,17.7-4.6,35.6,0.7,53.2c1.4,4.6,4.2,8.6,10,8.6c5.7,0,9.9-2.9,11.3-8.1
		C541,109.8,542.5,100.7,544.2,92.7L544.2,92.7z"/>
	<path class="st0" d="M286.2,90.3c0.4,14-2.3,27.6-8.7,40.4c-11,21.9-30,31.5-53.4,34.2c-26,3-50.1-0.9-68.5-21.7
		c-14.4-16.3-18.2-36.2-17.4-57.2c0.5-13.4,2.4-26.7,9.5-38.4c7.8-12.8,17.7-22.8,33.8-26.1s31.5-7.7,48.4-5.5
		c23.3,3.1,38.2,15.6,47.8,36.3C283.4,64.3,286.9,76.7,286.2,90.3L286.2,90.3z M228.5,94.2c-1.2-10.3-1.6-18.6-3.3-26.6
		c-1.3-6-4.1-12-11.9-12.1c-7.7-0.2-11.3,5.2-12.6,11.4c-3.5,16.9-3.9,34,1.3,50.5c1.2,3.7,5.7,7.8,9.5,8.9
		c5.6,1.7,10.4-2.2,11.9-7.7C225.7,110,227,101.2,228.5,94.2L228.5,94.2z"/>
	<path class="st0" d="M919.9,162.5c5-15.9,9.4-30.4,14-44.9c9.8-30.5,19.8-61,29.3-91.6c2-6.3,4.9-8.6,11.6-8.3
		c20,0.8,40,0.8,60,1.2c4.5,0.1,6.7,1.6,8.3,6.6c13.2,41.3,27,82.5,40.5,123.7c0.5,1.6,1.1,3.1,1.7,4.7c2.2,6,0.6,8.6-5.7,8.7
		c-16.2,0.1-32.4,0-48.6,0.1c-5.2,0-7.8-2.4-8.8-7.3c-1-4.6-2.2-9.1-3.5-14.2c-10.2,0-20.2-0.2-30.1,0.2c-1.7,0.1-3.9,2.6-4.7,4.5
		c-1.4,3.2-1.4,7.1-3.1,10.1c-1.5,2.6-4.5,6.2-6.9,6.3C956.4,162.8,938.8,162.5,919.9,162.5L919.9,162.5z M1003.9,52.9
		c-0.7-0.1-1.5-0.1-2.2-0.2c-3.9,16.7-7.7,33.4-11.6,50.5h24.5C1010.9,86,1007.4,69.5,1003.9,52.9L1003.9,52.9z"/>
	<path class="st0" d="M383.5,76.7c0-3.3,0.8-6.3-0.2-8.4c-1.7-3.6-4.2-9-6.9-9.3c-3.4-0.4-7.8,2.9-10.8,5.7c-1.8,1.6-2.4,5.2-2.4,8
		c0,13.3,0,26.5,0.7,39.8c0.2,4.6,3.2,9.5,8.6,8.5c3-0.6,7-4.5,7.7-7.5c1.9-8.2,6.3-10.2,14.2-9.8c12.1,0.7,24.3,0.2,36.4,0.2
		c9.5,0,11.4,2.1,9.9,11.4c-3.5,22-15.3,37.5-36.3,45.5c-20.6,7.9-41.4,7.9-62,0.3c-19.7-7.3-31.6-22.3-38.4-41.6
		c-7-20.1-7.6-40.8-0.3-60.9c8.8-24.3,27.3-37.6,52.5-41.9c16.9-2.9,33.6-1.9,49.9,3.9c20.4,7.2,33.9,27,33.3,48.4
		c-0.1,4.1-1.1,7.6-5.5,7.7C417.4,76.8,400.8,76.7,383.5,76.7L383.5,76.7z"/>
	<path class="st0" d="M67.6,119.7c15.6,0,30.4-0.1,45.1,0c12.2,0.1,13.1,1.1,13.1,13c0,9.1-0.2,18.1,0.1,27.2
		c0.2,5.5-1.4,8.5-7.4,8.7c-9.3,0.2-18.5,1.2-27.8,1.3c-27.2,0.2-54.3,0-81.5,0.3c-5.5,0.1-8-1.7-8.4-7c-0.2-2.8-0.6-5.7-0.7-8.5
		C0,110.9,0,67,0,23.2C0,4.9,0.1,4.6,18,4.3c13.3-0.2,26.6,0.3,39.9,1c9.3,0.5,11,2.7,10.9,11.9c-0.4,31-0.9,61.9-1.3,92.9
		C67.6,112.9,67.6,115.7,67.6,119.7L67.6,119.7z"/>
	<path class="st0" d="M812.8,62.9c-9.2,0-17.3-0.1-25.3,0c-5.6,0.1-8.1-2.1-7.9-8.1c0.4-9.8,0.3-19.5,0-29.3
		c-0.1-4.8,1.6-6.1,6.2-6.1c38.4,0.1,76.7,0.1,115.1,0c5,0,6.8,2,6.8,6.8c-0.1,10-0.1,20,0,30c0.1,4.7-2,6.3-6.5,6.3
		c-8.6-0.1-17.1,0-26.8,0v7.9c0,28.6-0.2,57.2,0.1,85.8c0.1,5.8-2,7.7-7.4,7.5c-16.2-0.4-32.4-0.6-48.6-0.9
		c-5.9-0.1-7.6-3.3-7.4-8.8c0.7-27.2,1.2-54.3,1.7-81.5C812.8,69.7,812.8,66.9,812.8,62.9L812.8,62.9z"/>
	<path class="st0" d="M1284.8,118.1c14.5,0,28,0.3,41.5-0.1c6.7-0.2,8.9,2.4,8.7,8.7c-0.3,9-0.2,18.1,0,27.2c0.2,6-2.4,8.9-8.4,8.9
		c-32.6,0-65.3,0-97.9,0.1c-5,0-6-2.7-6-6.8c0.4-29.1,0.8-58.1,1-87.2c0.1-10.2-0.4-20.4-0.5-30.7c0-3.1-0.1-6.2,0.2-9.3
		c1.1-10.3,2-10.9,12.4-10.9c12.1,0.1,24.3,0.3,36.4,0.2c16.3-0.2,16.3,3.7,14.2,19.9c-0.4,3.5-1.6,6.9-1.7,10.3
		C1284.7,71.3,1284.8,94.1,1284.8,118.1L1284.8,118.1z"/>
	<path class="st0" d="M1160.4,118.1h41c9,0,9,0.1,9.1,9.3c0,8.8-0.2,17.6,0.1,26.4c0.2,6.1-2.2,8.9-8.2,8.9c-32.6,0-65.2,0-97.8,0.1
		c-4.3,0-6-1.8-5.9-6c0.3-26.4,0.7-52.8,0.8-79.3c0.1-10.7-0.3-21.4-0.2-32.1c0-6.9,0.4-13.7,0.9-20.6c0.3-5.2,3.2-7.1,8.5-7
		c13.6,0.4,27.1,0.2,40.7,0.4c13.4,0.2,17.9,7.3,12.9,20.2c-0.6,1.5-1.7,3.1-1.7,4.6C1160.4,67.8,1160.4,92.5,1160.4,118.1
		L1160.4,118.1z"/>
</g>
</svg>
